M48
;DRILL file {KiCad (5.0.0-rc2-dev-444-g2974a2c10)} date 07/12/19 11:05:47
;FORMAT={-:-/ absolute / inch / decimal}
FMAT,2
INCH,TZ
T1C0.0130
T2C0.0394
T3C0.0433
T4C0.0512
T5C0.0984
T6C0.0512
T7C0.0984
%
G90
G05
M72
T1
X5.761Y-4.0904
X5.86Y-4.39
X5.956Y-4.1354
X5.956Y-4.4854
X5.97Y-4.005
X6.001Y-4.2002
X6.151Y-4.0754
X6.191Y-4.2754
X6.316Y-4.1942
X6.75Y-3.925
X6.75Y-4.475
T2
X5.201Y-4.6004
X5.301Y-4.6004
X5.401Y-4.6004
X5.501Y-4.6004
X5.601Y-3.8004
X5.601Y-4.6004
X5.701Y-3.8004
X5.701Y-4.6004
X5.801Y-3.8004
X5.801Y-4.6004
X5.901Y-3.8004
X5.901Y-4.6004
X6.001Y-3.8004
X6.001Y-4.6004
X6.101Y-3.8004
X6.101Y-4.6004
X6.201Y-3.8004
X6.201Y-4.6004
X6.301Y-3.8004
X6.301Y-4.6004
X6.401Y-3.8004
X6.401Y-4.6004
X6.501Y-3.8004
X6.501Y-4.6004
X6.601Y-3.8004
X6.601Y-4.6004
X6.701Y-3.8004
X6.701Y-4.6004
T4
X5.0523Y-4.1017
X5.0523Y-4.2986
X5.446Y-3.9049
X5.446Y-4.2001
X5.446Y-4.4954
X5.5445Y-4.0033
X5.5445Y-4.397
X6.3576Y-4.0038
X6.3576Y-4.3975
X6.456Y-3.9054
X6.456Y-4.2007
X6.456Y-4.496
X6.8497Y-4.1023
X6.8497Y-4.2991
T5
X5.051Y-3.8504
X5.051Y-4.5504
T6
X6.7784Y-4.0012
X6.7784Y-4.3988
X5.1316Y-4.0012
X5.1316Y-4.3988
T7
X5.2492Y-3.9049
X5.2492Y-4.4954
X6.851Y-3.8504
X6.851Y-4.5504
X6.6529Y-3.9054
X6.6529Y-4.496
T3
X6.5914Y-4.0031G85X6.5717Y-4.0031
G05
X6.5914Y-4.1016G85X6.5717Y-4.1016
G05
X6.5914Y-4.2984G85X6.5717Y-4.2984
G05
X6.5914Y-4.3969G85X6.5717Y-4.3969
G05
X6.7883Y-4.2G85X6.7686Y-4.2
G05
X5.1217Y-4.2G85X5.1414Y-4.2
G05
X5.3186Y-4.0031G85X5.3383Y-4.0031
G05
X5.3186Y-4.1016G85X5.3383Y-4.1016
G05
X5.3186Y-4.2984G85X5.3383Y-4.2984
G05
X5.3186Y-4.3969G85X5.3383Y-4.3969
G05
T0
M30
